<?xml version="1.0" standalone="no"?><!DOCTYPE svg PUBLIC "-//W3C//DTD SVG 1.1//EN" "http://www.w3.org/Graphics/SVG/1.1/DTD/svg11.dtd"><svg t="1757485942032" class="icon" viewBox="0 0 1024 1024" version="1.1" xmlns="http://www.w3.org/2000/svg" p-id="6000" xmlns:xlink="http://www.w3.org/1999/xlink" width="200" height="200"><path d="M191.853714 491.428571h272.566857c20.571429 0 32.146286-11.154286 32.146286-29.988571 0-18.870857-11.574857-29.586286-32.146286-29.586286H235.574857v-1.718857l240-289.28c13.714286-16.274286 17.133714-26.148571 17.133714-39.003428 0-23.570286-16.274286-38.144-44.562285-38.144H181.577143c-20.571429 0-32.146286 10.715429-32.146286 29.586285 0 19.273143 11.574857 29.988571 32.146286 29.988572h228.425143v1.718857L164.425143 421.577143c-9.856 11.574857-12.434286 20.132571-12.434286 32.548571 0 22.308571 15.872 37.302857 39.862857 37.302857z m435.437715 230.582858h215.990857c20.150857 0 31.286857-10.294857 31.286857-29.147429 0-17.572571-11.154286-28.288-31.268572-28.288h-175.725714v-1.718857l183.424-221.147429c14.573714-17.554286 19.291429-27.428571 19.291429-39.424 0-23.149714-15.433143-37.284571-42.861715-37.284571H616.996571c-19.712 0-31.268571 10.715429-31.268571 28.708571 0 18.432 11.556571 28.708571 31.268571 28.708572h175.286858v1.718857l-188.562286 228.022857c-11.154286 13.275429-14.994286 21.833143-14.994286 34.267429 0 20.992 14.994286 35.565714 38.564572 35.565714z m-309.430858 238.262857h173.147429c18.413714 0 29.129143-10.276571 29.129143-26.989715 0-17.133714-10.715429-26.569143-29.129143-26.569142h-135.442286v-1.718858l142.299429-173.147428c13.714286-16.713143 17.993143-26.989714 17.993143-39.424 0-20.571429-14.134857-32.146286-37.302857-32.146286h-171.410286c-18.432 0-28.708571 9.874286-28.708572 26.569143 0 17.152 10.276571 27.008 28.708572 27.008h137.563428v1.28l-149.138285 180.004571c-10.276571 12.854857-13.714286 20.150857-13.714286 32.146286 0 19.291429 14.153143 33.005714 36.004571 33.005714z" p-id="6001" fill="#ffffff"></path></svg>